<svg width="718" height="718" xmlns="http://www.w3.org/2000/svg" xmlns:xlink="http://www.w3.org/1999/xlink" overflow="hidden"><defs><filter id="fx0" x="-10%" y="-10%" width="120%" height="120%" filterUnits="userSpaceOnUse" primitiveUnits="userSpaceOnUse"><feComponentTransfer color-interpolation-filters="sRGB"><feFuncR type="discrete" tableValues="0.431373 0.431373"/><feFuncG type="discrete" tableValues="0.454902 0.454902"/><feFuncB type="discrete" tableValues="0.478431 0.478431"/><feFuncA type="linear" slope="0.431373" intercept="0"/></feComponentTransfer><feGaussianBlur stdDeviation="1.33302 1.33302"/></filter><filter id="fx1" x="-10%" y="-10%" width="120%" height="120%" filterUnits="userSpaceOnUse" primitiveUnits="userSpaceOnUse"><feComponentTransfer color-interpolation-filters="sRGB"><feFuncR type="discrete" tableValues="0.431373 0.431373"/><feFuncG type="discrete" tableValues="0.454902 0.454902"/><feFuncB type="discrete" tableValues="0.478431 0.478431"/><feFuncA type="linear" slope="0.431373" intercept="0"/></feComponentTransfer><feGaussianBlur stdDeviation="1.33302 1.33302"/></filter><filter id="fx2" x="-10%" y="-10%" width="120%" height="120%" filterUnits="userSpaceOnUse" primitiveUnits="userSpaceOnUse"><feComponentTransfer color-interpolation-filters="sRGB"><feFuncR type="discrete" tableValues="0.431373 0.431373"/><feFuncG type="discrete" tableValues="0.454902 0.454902"/><feFuncB type="discrete" tableValues="0.478431 0.478431"/><feFuncA type="linear" slope="0.431373" intercept="0"/></feComponentTransfer><feGaussianBlur stdDeviation="1.33302 1.33302"/></filter><filter id="fx3" x="-10%" y="-10%" width="120%" height="120%" filterUnits="userSpaceOnUse" primitiveUnits="userSpaceOnUse"><feComponentTransfer color-interpolation-filters="sRGB"><feFuncR type="discrete" tableValues="0.431373 0.431373"/><feFuncG type="discrete" tableValues="0.454902 0.454902"/><feFuncB type="discrete" tableValues="0.478431 0.478431"/><feFuncA type="linear" slope="0.431373" intercept="0"/></feComponentTransfer><feGaussianBlur stdDeviation="1.33302 1.33302"/></filter><filter id="fx4" x="-10%" y="-10%" width="120%" height="120%" filterUnits="userSpaceOnUse" primitiveUnits="userSpaceOnUse"><feComponentTransfer color-interpolation-filters="sRGB"><feFuncR type="discrete" tableValues="0.431373 0.431373"/><feFuncG type="discrete" tableValues="0.454902 0.454902"/><feFuncB type="discrete" tableValues="0.478431 0.478431"/><feFuncA type="linear" slope="0.431373" intercept="0"/></feComponentTransfer><feGaussianBlur stdDeviation="1.33302 1.33302"/></filter><filter id="fx5" x="-10%" y="-10%" width="120%" height="120%" filterUnits="userSpaceOnUse" primitiveUnits="userSpaceOnUse"><feComponentTransfer color-interpolation-filters="sRGB"><feFuncR type="discrete" tableValues="0.431373 0.431373"/><feFuncG type="discrete" tableValues="0.454902 0.454902"/><feFuncB type="discrete" tableValues="0.478431 0.478431"/><feFuncA type="linear" slope="0.431373" intercept="0"/></feComponentTransfer><feGaussianBlur stdDeviation="1.33302 1.33302"/></filter><filter id="fx6" x="-10%" y="-10%" width="120%" height="120%" filterUnits="userSpaceOnUse" primitiveUnits="userSpaceOnUse"><feComponentTransfer color-interpolation-filters="sRGB"><feFuncR type="discrete" tableValues="0.431373 0.431373"/><feFuncG type="discrete" tableValues="0.454902 0.454902"/><feFuncB type="discrete" tableValues="0.478431 0.478431"/><feFuncA type="linear" slope="0.431373" intercept="0"/></feComponentTransfer><feGaussianBlur stdDeviation="1.33302 1.33302"/></filter><filter id="fx7" x="-10%" y="-10%" width="120%" height="120%" filterUnits="userSpaceOnUse" primitiveUnits="userSpaceOnUse"><feComponentTransfer color-interpolation-filters="sRGB"><feFuncR type="discrete" tableValues="0.431373 0.431373"/><feFuncG type="discrete" tableValues="0.454902 0.454902"/><feFuncB type="discrete" tableValues="0.478431 0.478431"/><feFuncA type="linear" slope="0.431373" intercept="0"/></feComponentTransfer><feGaussianBlur stdDeviation="1.33302 1.33302"/></filter><filter id="fx8" x="-10%" y="-10%" width="120%" height="120%" filterUnits="userSpaceOnUse" primitiveUnits="userSpaceOnUse"><feComponentTransfer color-interpolation-filters="sRGB"><feFuncR type="discrete" tableValues="0.431373 0.431373"/><feFuncG type="discrete" tableValues="0.454902 0.454902"/><feFuncB type="discrete" tableValues="0.478431 0.478431"/><feFuncA type="linear" slope="0.431373" intercept="0"/></feComponentTransfer><feGaussianBlur stdDeviation="1.33302 1.33302"/></filter><filter id="fx9" x="-10%" y="-10%" width="120%" height="120%" filterUnits="userSpaceOnUse" primitiveUnits="userSpaceOnUse"><feComponentTransfer color-interpolation-filters="sRGB"><feFuncR type="discrete" tableValues="0.431373 0.431373"/><feFuncG type="discrete" tableValues="0.454902 0.454902"/><feFuncB type="discrete" tableValues="0.478431 0.478431"/><feFuncA type="linear" slope="0.431373" intercept="0"/></feComponentTransfer><feGaussianBlur stdDeviation="1.33302 1.33302"/></filter><filter id="fx10" x="-10%" y="-10%" width="120%" height="120%" filterUnits="userSpaceOnUse" primitiveUnits="userSpaceOnUse"><feComponentTransfer color-interpolation-filters="sRGB"><feFuncR type="discrete" tableValues="0.431373 0.431373"/><feFuncG type="discrete" tableValues="0.454902 0.454902"/><feFuncB type="discrete" tableValues="0.478431 0.478431"/><feFuncA type="linear" slope="0.431373" intercept="0"/></feComponentTransfer><feGaussianBlur stdDeviation="1.33302 1.33302"/></filter><filter id="fx11" x="-10%" y="-10%" width="120%" height="120%" filterUnits="userSpaceOnUse" primitiveUnits="userSpaceOnUse"><feComponentTransfer color-interpolation-filters="sRGB"><feFuncR type="discrete" tableValues="0.431373 0.431373"/><feFuncG type="discrete" tableValues="0.454902 0.454902"/><feFuncB type="discrete" tableValues="0.478431 0.478431"/><feFuncA type="linear" slope="0.431373" intercept="0"/></feComponentTransfer><feGaussianBlur stdDeviation="1.33302 1.33302"/></filter><filter id="fx12" x="-10%" y="-10%" width="120%" height="120%" filterUnits="userSpaceOnUse" primitiveUnits="userSpaceOnUse"><feComponentTransfer color-interpolation-filters="sRGB"><feFuncR type="discrete" tableValues="0.431373 0.431373"/><feFuncG type="discrete" tableValues="0.454902 0.454902"/><feFuncB type="discrete" tableValues="0.478431 0.478431"/><feFuncA type="linear" slope="0.431373" intercept="0"/></feComponentTransfer><feGaussianBlur stdDeviation="1.33302 1.33302"/></filter><filter id="fx13" x="-10%" y="-10%" width="120%" height="120%" filterUnits="userSpaceOnUse" primitiveUnits="userSpaceOnUse"><feComponentTransfer color-interpolation-filters="sRGB"><feFuncR type="discrete" tableValues="0.431373 0.431373"/><feFuncG type="discrete" tableValues="0.454902 0.454902"/><feFuncB type="discrete" tableValues="0.478431 0.478431"/><feFuncA type="linear" slope="0.431373" intercept="0"/></feComponentTransfer><feGaussianBlur stdDeviation="1.33302 1.33302"/></filter><filter id="fx14" x="-10%" y="-10%" width="120%" height="120%" filterUnits="userSpaceOnUse" primitiveUnits="userSpaceOnUse"><feComponentTransfer color-interpolation-filters="sRGB"><feFuncR type="discrete" tableValues="0.431373 0.431373"/><feFuncG type="discrete" tableValues="0.454902 0.454902"/><feFuncB type="discrete" tableValues="0.478431 0.478431"/><feFuncA type="linear" slope="0.431373" intercept="0"/></feComponentTransfer><feGaussianBlur stdDeviation="1.33302 1.33302"/></filter><filter id="fx15" x="-10%" y="-10%" width="120%" height="120%" filterUnits="userSpaceOnUse" primitiveUnits="userSpaceOnUse"><feComponentTransfer color-interpolation-filters="sRGB"><feFuncR type="discrete" tableValues="0.431373 0.431373"/><feFuncG type="discrete" tableValues="0.454902 0.454902"/><feFuncB type="discrete" tableValues="0.478431 0.478431"/><feFuncA type="linear" slope="0.431373" intercept="0"/></feComponentTransfer><feGaussianBlur stdDeviation="1.33302 1.33302"/></filter><filter id="fx16" x="-10%" y="-10%" width="120%" height="120%" filterUnits="userSpaceOnUse" primitiveUnits="userSpaceOnUse"><feComponentTransfer color-interpolation-filters="sRGB"><feFuncR type="discrete" tableValues="0.431373 0.431373"/><feFuncG type="discrete" tableValues="0.454902 0.454902"/><feFuncB type="discrete" tableValues="0.478431 0.478431"/><feFuncA type="linear" slope="0.431373" intercept="0"/></feComponentTransfer><feGaussianBlur stdDeviation="1.33302 1.33302"/></filter><filter id="fx17" x="-10%" y="-10%" width="120%" height="120%" filterUnits="userSpaceOnUse" primitiveUnits="userSpaceOnUse"><feComponentTransfer color-interpolation-filters="sRGB"><feFuncR type="discrete" tableValues="0.431373 0.431373"/><feFuncG type="discrete" tableValues="0.454902 0.454902"/><feFuncB type="discrete" tableValues="0.478431 0.478431"/><feFuncA type="linear" slope="0.431373" intercept="0"/></feComponentTransfer><feGaussianBlur stdDeviation="1.33302 1.33302"/></filter><filter id="fx18" x="-10%" y="-10%" width="120%" height="120%" filterUnits="userSpaceOnUse" primitiveUnits="userSpaceOnUse"><feComponentTransfer color-interpolation-filters="sRGB"><feFuncR type="discrete" tableValues="0.431373 0.431373"/><feFuncG type="discrete" tableValues="0.454902 0.454902"/><feFuncB type="discrete" tableValues="0.478431 0.478431"/><feFuncA type="linear" slope="0.431373" intercept="0"/></feComponentTransfer><feGaussianBlur stdDeviation="1.33302 1.33302"/></filter><filter id="fx19" x="-10%" y="-10%" width="120%" height="120%" filterUnits="userSpaceOnUse" primitiveUnits="userSpaceOnUse"><feComponentTransfer color-interpolation-filters="sRGB"><feFuncR type="discrete" tableValues="0.431373 0.431373"/><feFuncG type="discrete" tableValues="0.454902 0.454902"/><feFuncB type="discrete" tableValues="0.478431 0.478431"/><feFuncA type="linear" slope="0.431373" intercept="0"/></feComponentTransfer><feGaussianBlur stdDeviation="1.33302 1.33302"/></filter><clipPath id="clip20"><rect x="0" y="0" width="718" height="718"/></clipPath><clipPath id="clip21"><rect x="-1" y="-1" width="51" height="49"/></clipPath><clipPath id="clip22"><rect x="0" y="0" width="50" height="46"/></clipPath><clipPath id="clip23"><rect x="-1" y="-1" width="41" height="41"/></clipPath><clipPath id="clip24"><rect x="0" y="0" width="39" height="40"/></clipPath><clipPath id="clip25"><rect x="-1" y="-1" width="37" height="43"/></clipPath><clipPath id="clip26"><rect x="0" y="0" width="35" height="40"/></clipPath><clipPath id="clip27"><rect x="-1" y="-1" width="37" height="43"/></clipPath><clipPath id="clip28"><rect x="0" y="0" width="35" height="40"/></clipPath><clipPath id="clip29"><rect x="-1" y="-1" width="31" height="51"/></clipPath><clipPath id="clip30"><rect x="0" y="0" width="30" height="50"/></clipPath><clipPath id="clip31"><rect x="-1" y="-1" width="29" height="47"/></clipPath><clipPath id="clip32"><rect x="0" y="0" width="27" height="45"/></clipPath><clipPath id="clip33"><rect x="-1" y="-1" width="35" height="55"/></clipPath><clipPath id="clip34"><rect x="0" y="0" width="33" height="53"/></clipPath><clipPath id="clip35"><rect x="-1" y="-1" width="21" height="51"/></clipPath><clipPath id="clip36"><rect x="0" y="0" width="19" height="49"/></clipPath><clipPath id="clip37"><rect x="-1" y="-1" width="31" height="39"/></clipPath><clipPath id="clip38"><rect x="0" y="0" width="29" height="38"/></clipPath><clipPath id="clip39"><rect x="-1" y="-1" width="31" height="49"/></clipPath><clipPath id="clip40"><rect x="0" y="0" width="29" height="47"/></clipPath><clipPath id="clip41"><rect x="-1" y="-1" width="29" height="55"/></clipPath><clipPath id="clip42"><rect x="0" y="0" width="27" height="53"/></clipPath><clipPath id="clip43"><rect x="-1" y="-1" width="35" height="41"/></clipPath><clipPath id="clip44"><rect x="0" y="0" width="32" height="40"/></clipPath><clipPath id="clip45"><rect x="-1" y="-1" width="35" height="41"/></clipPath><clipPath id="clip46"><rect x="0" y="0" width="33" height="38"/></clipPath><clipPath id="clip47"><rect x="-1" y="-1" width="43" height="49"/></clipPath><clipPath id="clip48"><rect x="0" y="0" width="42" height="48"/></clipPath><clipPath id="clip49"><rect x="-1" y="-1" width="41" height="43"/></clipPath><clipPath id="clip50"><rect x="0" y="0" width="38" height="40"/></clipPath><clipPath id="clip51"><rect x="-1" y="-1" width="43" height="43"/></clipPath><clipPath id="clip52"><rect x="0" y="0" width="42" height="41"/></clipPath><clipPath id="clip53"><rect x="-1" y="-1" width="47" height="65"/></clipPath><clipPath id="clip54"><rect x="0" y="0" width="45" height="63"/></clipPath><clipPath id="clip55"><rect x="-1" y="-1" width="49" height="65"/></clipPath><clipPath id="clip56"><rect x="0" y="0" width="47" height="62"/></clipPath><clipPath id="clip57"><rect x="-1" y="-1" width="47" height="63"/></clipPath><clipPath id="clip58"><rect x="0" y="0" width="45" height="62"/></clipPath><clipPath id="clip59"><rect x="-1" y="-1" width="49" height="65"/></clipPath><clipPath id="clip60"><rect x="0" y="0" width="47" height="63"/></clipPath></defs><g clip-path="url(#clip20)"><rect x="0" y="0" width="718" height="718" fill="#FFFFFF"/><path d="M33 359C33 182.821 175.821 40 352 40 528.179 40 671 182.821 671 359 671 535.179 528.179 678 352 678 175.821 678 33 535.179 33 359Z" stroke="#F4B183" stroke-width="7.99814" stroke-miterlimit="8" fill="none" fill-rule="evenodd"/><path d="M124 359C124 233.079 226.303 131 352.5 131 478.697 131 581 233.079 581 359 581 484.921 478.697 587 352.5 587 226.303 587 124 484.921 124 359Z" stroke="#F4B183" stroke-width="7.99814" stroke-miterlimit="8" fill="none" fill-rule="evenodd"/><text fill="#F4B183" font-family="Edwardian Script ITC,Edwardian Script ITC_MSFontService,sans-serif" font-weight="700" font-stretch="semi-expanded" font-size="160" transform="translate(168.986 401)">Franky</text><g clip-path="url(#clip21)" filter="url(#fx0)" transform="translate(144 136)"><g clip-path="url(#clip22)"><path d="M20.712 24.4259C19.9935 25.6013 20.2221 26.5483 21.3975 27.2667L32.6032 34.1153C33.7477 34.8148 34.6603 34.6077 35.3409 33.4941 35.5016 33.2312 36.1019 32.0578 37.1417 29.9741L22.7112 21.1547ZM5.40395 10.577 8.63681 5.28734 44.945 27.4778 41.7121 32.7674 40.9001 32.2712C39.3412 36.247 38.4294 38.4515 38.1647 38.8845 37.3518 40.2147 36.3232 41.02 35.0789 41.3005 33.8347 41.581 32.5397 41.3101 31.1941 40.4877L16.6941 31.6256C14.7916 30.463 13.8852 28.9742 13.9746 27.1594 14.0228 25.8292 14.6613 24.1588 15.8902 22.1481 16.1643 21.6996 16.5768 21.0594 17.1276 20.2277 17.6785 19.3959 18.0626 18.8022 18.28 18.4464Z" fill="#F4B183" fill-rule="evenodd"/></g></g><path d="M164.712 157.76C163.994 158.935 164.222 159.882 165.398 160.601L176.603 167.449C177.748 168.149 178.66 167.942 179.341 166.828 179.502 166.565 180.102 165.392 181.142 163.308L166.711 154.489ZM149.404 143.911 152.637 138.621 188.945 160.812 185.712 166.101 184.9 165.605C183.341 169.581 182.429 171.785 182.165 172.218 181.352 173.549 180.323 174.354 179.079 174.634 177.835 174.915 176.54 174.644 175.194 173.822L160.694 164.96C158.792 163.797 157.885 162.308 157.975 160.493 158.023 159.163 158.661 157.493 159.89 155.482 160.164 155.034 160.577 154.393 161.128 153.562 161.678 152.73 162.063 152.136 162.28 151.78Z" fill="#F4B183" fill-rule="evenodd"/><text fill="#000000" fill-opacity="0" font-family="Arial,Arial_MSFontService,sans-serif" font-size="36.1202" x="149.404" y="170.226">d</text><g clip-path="url(#clip23)" filter="url(#fx1)" transform="translate(168 127)"><g clip-path="url(#clip24)"><path d="M11.3918 15.3552 22.7836 28.1115 27.1844 24.1814 15.7926 11.4251ZM5.98573 13.2203 14.3007 5.79481C16.0177 4.26143 17.6309 4.33974 19.1401 6.02977L32.9044 21.4428C34.4136 23.1328 34.3097 24.7445 32.5926 26.2779L24.2777 33.7034C22.5336 35.2609 20.9069 35.1947 19.3977 33.5047L5.63343 18.0916C4.12419 16.4016 4.24162 14.7778 5.98573 13.2203Z" fill="#F4B183" fill-rule="evenodd"/></g></g><path d="M179.392 139.689 190.784 152.445 195.184 148.515 183.793 135.759ZM173.986 137.554 182.301 130.129C184.018 128.595 185.631 128.674 187.14 130.364L200.904 145.777C202.414 147.467 202.31 149.078 200.593 150.612L192.278 158.037C190.534 159.595 188.907 159.529 187.398 157.839L173.633 142.426C172.124 140.736 172.242 139.112 173.986 137.554Z" fill="#F4B183" fill-rule="evenodd"/><text fill="#000000" fill-opacity="0" font-family="Arial,Arial_MSFontService,sans-serif" font-size="30.1232" x="172.583" y="155.392">o</text><g clip-path="url(#clip25)" filter="url(#fx2)" transform="translate(219 99)"><g clip-path="url(#clip26)"><path d="M14.5229 22.1641 17.2642 29.2375 22.7378 26.883 20.0751 20.0124ZM7.07267 8.80906 16.8842 5.00666C19.0307 4.17479 20.5133 4.81521 21.3321 6.92793L30.0275 29.365 24.4753 31.5168 24.1314 30.6294C22.8917 31.3432 21.6519 32.0569 20.4122 32.7707 18.7865 33.6923 17.5257 34.3267 16.6299 34.6739 14.5172 35.4927 13.058 34.8626 12.2523 32.7837L8.67589 23.5553C7.85711 21.4426 8.53789 19.9637 10.7182 19.1187L18.5522 16.0827 16.2727 10.2009 10.7205 12.3526 12.1353 16.0034 6.88733 18.0373 5.03034 13.2456C4.21157 11.1329 4.89234 9.65404 7.07267 8.80906Z" fill="#F4B183" fill-rule="evenodd"/></g></g><path d="M233.523 118.498 236.264 125.571 241.738 123.217 239.075 116.346ZM226.073 105.143 235.884 101.341C238.031 100.509 239.513 101.149 240.332 103.262L249.028 125.699 243.475 127.851 243.131 126.963C241.892 127.677 240.652 128.391 239.412 129.105 237.786 130.026 236.526 130.661 235.63 131.008 233.517 131.827 232.058 131.197 231.252 129.118L227.676 119.889C226.857 117.777 227.538 116.298 229.718 115.453L237.552 112.417 235.273 106.535 229.72 108.687 231.135 112.337 225.887 114.371 224.03 109.58C223.212 107.467 223.892 105.988 226.073 105.143Z" fill="#F4B183" fill-rule="evenodd"/><text fill="#000000" fill-opacity="0" font-family="Arial,Arial_MSFontService,sans-serif" font-size="30.3668" x="223.695" y="127.559">a</text><g clip-path="url(#clip27)" filter="url(#fx3)" transform="translate(239 92)"><g clip-path="url(#clip28)"><path d="M19.3802 4.76846C21.5541 4.12943 22.9554 4.87945 23.5842 7.01852L30.4167 30.2614 24.4168 32.0251 18.1365 10.6604 12.5586 12.4135 18.8083 33.6738 12.8345 35.4298 5.08954 9.08271 11.0633 7.32666 11.347 8.29185C12.6718 7.65679 13.9905 7.03299 15.303 6.42043 16.9255 5.64118 18.2846 5.09053 19.3802 4.76846Z" fill="#F4B183" fill-rule="evenodd"/></g></g><path d="M258.38 94.1024C260.554 93.4634 261.955 94.2134 262.584 96.3525L269.417 119.595 263.417 121.359 257.136 99.9944 251.559 101.747 257.808 123.008 251.835 124.764 244.09 98.4167 250.063 96.6606 250.347 97.6258C251.672 96.9907 252.99 96.3669 254.303 95.7544 255.926 94.9751 257.285 94.4245 258.38 94.1024Z" fill="#F4B183" fill-rule="evenodd"/><text fill="#000000" fill-opacity="0" font-family="Arial,Arial_MSFontService,sans-serif" font-size="30.8818" x="244.09" y="120.904">n</text><g clip-path="url(#clip29)" filter="url(#fx4)" transform="translate(260 86)"><g clip-path="url(#clip30)"><path d="M5.28194 8.97742 11.5229 7.60724 18.9266 24.4659 18.5872 6.0563 24.8017 4.69195 23.8957 32.6449 23.5469 43.3554 17.3325 44.7198 17.9229 34.0954Z" fill="#F4B183" fill-rule="evenodd"/></g></g><path d="M265.282 92.3114 271.523 90.9412 278.927 107.8 278.587 89.3903 284.802 88.0259 283.896 115.979 283.547 126.689 277.332 128.054 277.923 117.429Z" fill="#F4B183" fill-rule="evenodd"/><text fill="#000000" fill-opacity="0" font-family="Arial,Arial_MSFontService,sans-serif" font-size="40.0278" x="265.282" y="123.05">y</text><g clip-path="url(#clip31)" filter="url(#fx5)" transform="translate(282 77)"><g clip-path="url(#clip32)"><path d="M6.51945 5.55741 12.635 4.54182 13.8555 11.8912 17.7984 11.2364 18.667 16.4669 14.7241 17.1216 17.4857 33.7517 21.5896 33.0702 22.4582 38.3006 15.6452 39.432C13.3743 39.8091 12.0532 38.8801 11.682 36.6448L8.60852 18.1372 5.71168 18.6183 4.84309 13.3879 7.73993 12.9068Z" fill="#F4B183" fill-rule="evenodd"/></g></g><path d="M288.519 79.8914 294.635 78.8758 295.855 86.2252 299.798 85.5704 300.667 90.8008 296.724 91.4556 299.486 108.086 303.59 107.404 304.458 112.635 297.645 113.766C295.374 114.143 294.053 113.214 293.682 110.979L290.609 92.4712 287.712 92.9522 286.843 87.7218 289.74 87.2408Z" fill="#F4B183" fill-rule="evenodd"/><text fill="#000000" fill-opacity="0" font-family="Arial,Arial_MSFontService,sans-serif" font-size="34.9718" x="286.843" y="109.476">t</text><g clip-path="url(#clip33)" filter="url(#fx6)" transform="translate(297 67)"><g clip-path="url(#clip34)"><path d="M4.96091 5.6302 11.146 4.91312 12.9998 20.9025C14.4152 20.5194 15.8296 20.1273 17.2429 19.7262 19.0281 19.2273 20.4519 18.9162 21.5143 18.7931 23.765 18.5321 25.0188 19.509 25.2756 21.7238L28.0656 45.7888 21.8535 46.5091 19.2889 24.3886 13.4945 25.1699 16.0466 47.1823 9.86148 47.8994Z" fill="#F4B183" fill-rule="evenodd"/></g></g><path d="M301.961 69.9642 308.146 69.2471 310 85.2364C311.415 84.8534 312.83 84.4613 314.243 84.0602 316.028 83.5613 317.452 83.2502 318.514 83.127 320.765 82.8661 322.019 83.843 322.276 86.0577L325.066 110.123 318.854 110.843 316.289 88.7226 310.495 89.5039 313.047 111.516 306.861 112.233Z" fill="#F4B183" fill-rule="evenodd"/><text fill="#000000" fill-opacity="0" font-family="Arial,Arial_MSFontService,sans-serif" font-size="42.9863" x="301.961" y="106.86">h</text><g clip-path="url(#clip35)" filter="url(#fx7)" transform="translate(321 69)"><g clip-path="url(#clip36)"><path d="M5.8167 16.1715 11.9176 15.7184 13.9513 43.1049 7.85034 43.5579ZM4.9953 5.84455 11.2047 5.38345 11.6799 11.7827 5.4705 12.2438Z" fill="#F4B183" fill-rule="evenodd"/></g></g><path d="M326.817 82.5054 332.918 82.0524 334.951 109.439 328.85 109.892ZM325.995 72.1785 332.205 71.7174 332.68 78.1166 326.471 78.5777Z" fill="#F4B183" fill-rule="evenodd"/><text fill="#000000" fill-opacity="0" font-family="Arial,Arial_MSFontService,sans-serif" font-size="38.1745" x="325.995" y="105.12">i</text><g clip-path="url(#clip37)" filter="url(#fx8)" transform="translate(333 79)"><g clip-path="url(#clip38)"><path d="M19.6951 4.71593C21.9596 4.6386 23.1299 5.71408 23.206 7.94236L24.0328 32.1545 17.7828 32.3679 17.0228 10.1123 11.1841 10.4205 11.9403 32.5675 5.71745 32.7799 4.78024 5.33407 11.0031 5.12157 11.0374 6.12702C12.4787 5.84201 13.9112 5.56638 15.3349 5.30012 17.1004 4.94963 18.5538 4.75491 19.6951 4.71593Z" fill="#F4B183" fill-rule="evenodd"/></g></g><path d="M352.695 81.0499C354.96 80.9726 356.13 82.048 356.206 84.2763L357.033 108.488 350.783 108.702 350.023 86.4463 344.184 86.7545 344.94 108.901 338.717 109.114 337.78 81.668 344.003 81.4555 344.037 82.461C345.479 82.176 346.911 81.9003 348.335 81.6341 350.1 81.2836 351.554 81.0889 352.695 81.0499Z" fill="#F4B183" fill-rule="evenodd"/><text fill="#000000" fill-opacity="0" font-family="Arial,Arial_MSFontService,sans-serif" font-size="28.0679" x="337.78" y="105.605">n</text><g clip-path="url(#clip39)" filter="url(#fx9)" transform="translate(355 79)"><g clip-path="url(#clip40)"><path d="M13.9454 9.91091C12.6043 9.88555 11.9212 10.5344 11.8962 11.8574L11.6474 25.015C11.6213 26.3924 12.297 27.0941 13.6744 27.1201L17.5075 27.1926 17.8267 10.3106C15.7467 10.0538 14.4529 9.92051 13.9454 9.91091ZM10.863 4.65841C11.6423 4.67315 13.9913 5.08923 17.91 5.90666L17.929 4.90081 24.1272 5.01802 23.4826 39.1082C23.4397 41.3736 22.2494 42.4842 19.9115 42.44L9.09177 42.2354C6.75385 42.1912 5.60631 41.0363 5.64915 38.7709L5.73244 34.3669 11.7403 34.4805 11.6781 37.7699 17.3055 37.8764 17.4129 32.1947 11.0244 32.0739C9.28455 32.041 7.9119 31.5255 6.90643 30.5275 5.90096 29.5294 5.41451 28.1696 5.44707 26.4478L5.76477 9.64744C5.79459 8.0707 6.26208 6.83764 7.16727 5.94826 8.07245 5.05889 9.30435 4.62893 10.863 4.65841Z" fill="#F4B183" fill-rule="evenodd"/></g></g><path d="M368.945 86.2449C367.604 86.2195 366.921 86.8683 366.896 88.1913L366.647 101.349C366.621 102.726 367.297 103.428 368.674 103.454L372.508 103.527 372.827 86.6446C370.747 86.3877 369.453 86.2545 368.945 86.2449ZM365.863 80.9924C366.642 81.0071 368.991 81.4232 372.91 82.2406L372.929 81.2348 379.127 81.352 378.483 115.442C378.44 117.708 377.249 118.818 374.911 118.774L364.092 118.569C361.754 118.525 360.606 117.37 360.649 115.105L360.732 110.701 366.74 110.814 366.678 114.104 372.305 114.21 372.413 108.529 366.024 108.408C364.285 108.375 362.912 107.859 361.906 106.861 360.901 105.863 360.414 104.504 360.447 102.782L360.765 85.9814C360.795 84.4047 361.262 83.1716 362.167 82.2822 363.072 81.3928 364.304 80.9629 365.863 80.9924Z" fill="#F4B183" fill-rule="evenodd"/><text fill="#000000" fill-opacity="0" font-family="Arial,Arial_MSFontService,sans-serif" font-size="37.7843" x="360.446" y="114.052">g</text><g clip-path="url(#clip41)" filter="url(#fx10)" transform="translate(411 68)"><g clip-path="url(#clip42)"><path d="M14.516 5.23716 21.7255 6.29615 20.9392 11.6495 16.4198 10.9857 15.013 20.5625 18.9406 21.1394 18.1701 26.3852 14.2425 25.8083 11.0221 47.7329 4.91548 46.8359 8.13591 24.9113 5.33818 24.5004 6.10872 19.2546 8.90645 19.6656 10.6056 8.09799C10.9349 5.85621 12.2383 4.9026 14.516 5.23716Z" fill="#F4B183" fill-rule="evenodd"/></g></g><path d="M425.516 70.5711 432.726 71.6301 431.939 76.9835 427.42 76.3196 426.013 85.8965 429.941 86.4734 429.17 91.7192 425.242 91.1422 422.022 113.067 415.915 112.17 419.136 90.2453 416.338 89.8343 417.109 84.5886 419.906 84.9995 421.606 73.4319C421.935 71.1902 423.238 70.2366 425.516 70.5711Z" fill="#F4B183" fill-rule="evenodd"/><text fill="#000000" fill-opacity="0" font-family="Arial,Arial_MSFontService,sans-serif" font-size="42.5609" x="415.915" y="107.747">f</text><g clip-path="url(#clip43)" filter="url(#fx11)" transform="translate(423 85)"><g clip-path="url(#clip44)"><path d="M15.2174 10.9203 11.8878 27.6956 17.6752 28.8442 21.0047 12.069ZM13.6681 5.31822 24.6027 7.48849C26.8607 7.93666 27.7692 9.27198 27.3281 11.4945L23.3051 31.7635C22.864 33.9859 21.5145 34.8731 19.2564 34.4249L8.32181 32.2547C6.02823 31.7994 5.10199 30.4606 5.54309 28.2381L9.56604 7.9691C10.0071 5.74662 11.3745 4.86299 13.6681 5.31822Z" fill="#F4B183" fill-rule="evenodd"/></g></g><path d="M438.217 93.2543 434.888 110.03 440.675 111.178 444.005 94.4029ZM436.668 87.6522 447.603 89.8224C449.861 90.2706 450.769 91.6059 450.328 93.8284L446.305 114.097C445.864 116.32 444.514 117.207 442.256 116.759L431.322 114.589C429.028 114.133 428.102 112.795 428.543 110.572L432.566 90.303C433.007 88.0806 434.375 87.1969 436.668 87.6522Z" fill="#F4B183" fill-rule="evenodd"/><text fill="#000000" fill-opacity="0" font-family="Arial,Arial_MSFontService,sans-serif" font-size="29.3356" x="428.436" y="113.205">o</text><g clip-path="url(#clip45)" filter="url(#fx12)" transform="translate(444 89)"><g clip-path="url(#clip46)"><path d="M25.4212 8.82046C27.61 9.40613 28.4163 10.7759 27.84 12.9297L25.7105 20.8883 19.7481 19.2929 21.3716 13.2255 16.5894 12.0584 10.8615 33.4652 4.84656 31.8558 11.9449 5.32716 17.9598 6.93658 17.6998 7.90842C19.0039 8.01345 20.2993 8.11613 21.586 8.21647 23.1447 8.35206 24.4231 8.5534 25.4212 8.82046Z" fill="#F4B183" fill-rule="evenodd"/></g></g><path d="M469.421 95.1544C471.61 95.7401 472.416 97.1098 471.84 99.2636L469.711 107.222 463.748 105.627 465.372 99.5594 460.589 98.3924 454.862 119.799 448.847 118.19 455.945 91.6611 461.96 93.2705 461.7 94.2424C463.004 94.3474 464.299 94.4501 465.586 94.5504 467.145 94.686 468.423 94.8874 469.421 95.1544Z" fill="#F4B183" fill-rule="evenodd"/><text fill="#000000" fill-opacity="0" font-family="Arial,Arial_MSFontService,sans-serif" font-size="28.1381" x="448.847" y="116.282">r</text><g clip-path="url(#clip47)" filter="url(#fx13)" transform="translate(490 108)"><g clip-path="url(#clip48)"><path d="M19.1682 4.55665 24.7881 7.5971 19.3779 25.1971 31.1494 11.0386 36.7454 14.0661 17.7957 34.6355 10.5337 42.5158 4.93771 39.4883 12.3264 31.8311Z" fill="#F4B183" fill-rule="evenodd"/></g></g><path d="M509.168 109.891 514.788 112.931 509.378 130.531 521.149 116.373 526.745 119.4 507.796 139.969 500.534 147.85 494.938 144.822 502.326 137.165Z" fill="#F4B183" fill-rule="evenodd"/><text fill="#000000" fill-opacity="0" font-family="Arial,Arial_MSFontService,sans-serif" font-size="37.9592" x="494.938" y="143.105">y</text><g clip-path="url(#clip49)" filter="url(#fx14)" transform="translate(511 121)"><g clip-path="url(#clip50)"><path d="M21.7201 11.5878 11.394 25.2211 16.0973 28.7835 26.4235 15.1502ZM22.7749 5.87193 31.6615 12.6028C33.4966 13.9927 33.7301 15.5908 32.3621 17.397L19.8853 33.8697C18.5173 35.6759 16.9157 35.884 15.0806 34.4941L6.19403 27.7632C4.33002 26.3514 4.08203 24.7424 5.4501 22.9361L17.9268 6.46349C19.2949 4.65728 20.9109 4.4601 22.7749 5.87193Z" fill="#F4B183" fill-rule="evenodd"/></g></g><path d="M532.72 129.922 522.394 143.555 527.097 147.117 537.423 133.484ZM533.775 124.206 542.661 130.937C544.497 132.327 544.73 133.925 543.362 135.731L530.885 152.204C529.517 154.01 527.916 154.218 526.081 152.828L517.194 146.097C515.33 144.685 515.082 143.076 516.45 141.27L528.927 124.797C530.295 122.991 531.911 122.794 533.775 124.206Z" fill="#F4B183" fill-rule="evenodd"/><text fill="#000000" fill-opacity="0" font-family="Arial,Arial_MSFontService,sans-serif" font-size="30.4579" x="515.581" y="149.927">o</text><g clip-path="url(#clip51)" filter="url(#fx15)" transform="translate(526 136)"><g clip-path="url(#clip52)"><path d="M25.1355 4.89754 29.0331 9.68331 11.7453 23.7629 15.5767 28.2519 32.7591 14.2583 36.6739 19.0651 15.3803 36.407 11.4655 31.6001 12.2035 30.9992C11.1164 30.0376 10.0237 29.0691 8.92523 28.0934 7.60406 26.9018 6.58292 25.8632 5.86179 24.9778 4.43094 23.2209 4.59396 21.627 6.35083 20.1962Z" fill="#F4B183" fill-rule="evenodd"/></g></g><path d="M551.136 138.231 555.033 143.017 537.745 157.097 541.577 161.586 558.759 147.592 562.674 152.399 541.38 169.741 537.466 164.934 538.203 164.333C537.116 163.372 536.024 162.403 534.925 161.427 533.604 160.236 532.583 159.197 531.862 158.312 530.431 156.555 530.594 154.961 532.351 153.53Z" fill="#F4B183" fill-rule="evenodd"/><text fill="#000000" fill-opacity="0" font-family="Arial,Arial_MSFontService,sans-serif" font-size="31.5094" x="530.898" y="165.802">u</text><g clip-path="url(#clip53)" filter="url(#fx16)" transform="translate(279 600)"><g clip-path="url(#clip54)"><path d="M26.2476 5.26572C28.8624 5.55025 31.1112 6.12895 32.9939 7.00181 34.8767 7.87467 36.4012 8.9705 37.5675 10.2893 38.7337 11.6081 39.546 13.111 40.0042 14.7981 40.4624 16.4852 40.59 18.2607 40.3872 20.1247 40.2097 21.7557 39.8797 23.3439 39.3972 24.8893 38.9147 26.4347 38.0823 28.0665 36.8999 29.7846 35.7175 31.5027 34.1127 33.3713 32.0855 35.3905 30.0583 37.4096 27.4099 39.7213 24.1402 42.3255L17.6214 47.7066 37.4264 49.8617C37.6852 49.8899 37.9163 49.9936 38.1194 50.1729 38.3226 50.3522 38.4842 50.6121 38.6043 50.9526 38.7244 51.2931 38.7945 51.733 38.8144 52.2721 38.8343 52.8113 38.8048 53.4433 38.7259 54.1682 38.6442 54.919 38.5421 55.5562 38.4197 56.0799 38.2972 56.6036 38.1529 57.0267 37.9869 57.3491 37.8208 57.6716 37.6265 57.8928 37.4038 58.0126 37.1812 58.1325 36.9405 58.1783 36.6816 58.1501L7.78967 55.0062C7.22011 54.9442 6.73386 54.8389 6.33091 54.6903 5.92795 54.5416 5.61323 54.3044 5.38674 53.9785 5.16025 53.6526 5.01974 53.1985 4.96522 52.6163 4.9107 52.0341 4.93274 51.2899 5.03134 50.3838 5.1243 49.5294 5.24272 48.8023 5.38659 48.2024 5.53046 47.6024 5.73201 47.0743 5.99124 46.6179 6.25047 46.1615 6.56654 45.7243 6.93945 45.3065 7.31236 44.8887 7.78728 44.4361 8.36422 43.9488L18.077 35.5753C20.0088 33.9519 21.5864 32.4536 22.8098 31.0805 24.0332 29.7074 25.0096 28.4384 25.7388 27.2734 26.4681 26.1085 26.9991 25.0202 27.3318 24.0086 27.6646 22.997 27.8817 22.0252 27.9831 21.0932 28.0761 20.2389 28.0282 19.4151 27.8394 18.6218 27.6507 17.8285 27.322 17.1182 26.8532 16.4909 26.3845 15.8636 25.7665 15.3444 24.9991 14.9335 24.2318 14.5225 23.3044 14.2579 22.2171 14.1396 20.6897 13.9734 19.3159 14.0204 18.0956 14.2805 16.8755 14.5407 15.7927 14.8616 14.8474 15.2434 13.9021 15.6251 13.11 15.9842 12.4708 16.3207 11.8317 16.6572 11.3439 16.8071 11.0073 16.7705 10.7743 16.7451 10.5822 16.6456 10.4308 16.472 10.2794 16.2984 10.1717 16.0247 10.1075 15.651 10.0434 15.2773 10.0121 14.7827 10.0136 14.1673 10.0151 13.5518 10.0637 12.804 10.1595 11.9238 10.2243 11.3283 10.2979 10.8321 10.3804 10.435 10.4629 10.038 10.5592 9.69482 10.6693 9.40555 10.7793 9.11628 10.9111 8.86866 11.0645 8.66269 11.2178 8.45672 11.4733 8.21601 11.8307 7.94056 12.1881 7.66511 12.8265 7.3351 13.7459 6.95053 14.6653 6.56596 15.7839 6.21617 17.1018 5.90115 18.4196 5.58614 19.8592 5.35641 21.4204 5.21195 22.9817 5.0675 24.5907 5.08542 26.2476 5.26572Z" fill="#F4B183" fill-rule="evenodd"/></g></g><path d="M305.248 602.6C307.862 602.884 310.111 603.463 311.994 604.336 313.877 605.209 315.401 606.304 316.567 607.623 317.734 608.942 318.546 610.445 319.004 612.132 319.462 613.819 319.59 615.595 319.387 617.459 319.21 619.09 318.88 620.678 318.397 622.223 317.915 623.769 317.082 625.4 315.9 627.119 314.717 628.837 313.113 630.705 311.086 632.724 309.058 634.743 306.41 637.055 303.14 639.659L296.621 645.041 316.426 647.196C316.685 647.224 316.916 647.328 317.119 647.507 317.323 647.686 317.484 647.946 317.604 648.286 317.724 648.627 317.794 649.067 317.814 649.606 317.834 650.145 317.805 650.777 317.726 651.502 317.644 652.253 317.542 652.89 317.42 653.414 317.297 653.938 317.153 654.361 316.987 654.683 316.821 655.005 316.626 655.227 316.404 655.347 316.181 655.466 315.94 655.512 315.682 655.484L286.79 652.34C286.22 652.278 285.734 652.173 285.331 652.024 284.928 651.876 284.613 651.638 284.387 651.312 284.16 650.987 284.02 650.532 283.965 649.95 283.911 649.368 283.933 648.624 284.031 647.718 284.124 646.863 284.243 646.136 284.387 645.536 284.53 644.936 284.732 644.408 284.991 643.952 285.25 643.495 285.567 643.058 285.939 642.64 286.312 642.223 286.787 641.77 287.364 641.283L297.077 632.909C299.009 631.286 300.586 629.787 301.81 628.414 303.033 627.041 304.01 625.772 304.739 624.607 305.468 623.442 305.999 622.354 306.332 621.343 306.665 620.331 306.882 619.359 306.983 618.427 307.076 617.573 307.028 616.749 306.839 615.956 306.651 615.162 306.322 614.452 305.853 613.825 305.384 613.198 304.766 612.678 303.999 612.267 303.232 611.856 302.304 611.592 301.217 611.474 299.69 611.307 298.316 611.354 297.096 611.614 295.875 611.875 294.793 612.196 293.847 612.577 292.902 612.959 292.11 613.318 291.471 613.655 290.832 613.991 290.344 614.141 290.007 614.104 289.774 614.079 289.582 613.98 289.431 613.806 289.279 613.632 289.172 613.359 289.108 612.985 289.043 612.611 289.012 612.117 289.014 611.501 289.015 610.886 289.064 610.138 289.159 609.258 289.224 608.662 289.298 608.166 289.38 607.769 289.463 607.372 289.559 607.029 289.669 606.74 289.779 606.45 289.911 606.203 290.064 605.997 290.218 605.791 290.473 605.55 290.831 605.274 291.188 604.999 291.826 604.669 292.746 604.284 293.665 603.9 294.784 603.55 296.102 603.235 297.42 602.92 298.859 602.69 300.42 602.546 301.982 602.401 303.591 602.419 305.248 602.6Z" fill="#F4B183" fill-rule="evenodd"/><text fill="#000000" fill-opacity="0" font-family="Arial,Arial_MSFontService,sans-serif" font-size="53.0426" x="283.936" y="648.862">2</text><g clip-path="url(#clip55)" filter="url(#fx17)" transform="translate(319 603)"><g clip-path="url(#clip56)"><path d="M24.0129 12.9264C22.4772 12.8796 21.1969 13.2119 20.1722 13.9232 19.1475 14.6346 18.3197 15.7232 17.6889 17.189 17.0581 18.6549 16.5918 20.4905 16.2902 22.6959 15.9886 24.9013 15.793 27.4747 15.7035 30.416 15.5942 34.0081 15.6468 36.9863 15.8614 39.3507 16.076 41.7151 16.468 43.6029 17.0373 45.0141 17.6066 46.4253 18.3643 47.4254 19.3103 48.0144 20.2564 48.6033 21.4062 48.9184 22.7597 48.9596 23.7749 48.9905 24.6779 48.8551 25.4687 48.5536 26.2595 48.2519 26.9576 47.7847 27.5631 47.1518 28.1685 46.5189 28.6815 45.7138 29.1021 44.7366 29.5227 43.7593 29.8764 42.6237 30.1633 41.3298 30.4502 40.0358 30.6641 38.5703 30.8052 36.9332 30.9462 35.2961 31.0468 33.4884 31.107 31.5102 31.1799 29.1155 31.1792 26.9986 31.1049 25.1595 31.0307 23.3205 30.8775 21.72 30.6453 20.3582 30.4132 18.9963 30.1097 17.8407 29.7348 16.8913 29.3598 15.942 28.8946 15.1788 28.339 14.6017 27.7833 14.0247 27.1447 13.6079 26.423 13.3514 25.7013 13.095 24.8979 12.9533 24.0129 12.9264ZM24.6896 4.81819C28.1516 4.92357 31.0033 5.6031 33.2448 6.85678 35.4864 8.11046 37.237 9.87027 38.4968 12.1362 39.7566 14.4022 40.5978 17.1504 41.0206 20.3809 41.4433 23.6114 41.5928 27.2569 41.4692 31.3176 41.3464 35.3521 40.9101 38.9864 40.1603 42.2203 39.4106 45.4542 38.2655 48.194 36.7251 50.4399 35.1847 52.6857 33.218 54.3845 30.8251 55.5362 28.4322 56.6878 25.5308 57.2118 22.1209 57.108 18.659 57.0026 15.8137 56.3233 13.5852 55.07 11.3567 53.8167 9.61253 52.0571 8.35277 49.7912 7.093 47.5252 6.24525 44.7768 5.80949 41.5459 5.37374 38.315 5.21767 34.6692 5.34128 30.6086 5.4633 26.6001 5.90591 22.9725 6.66911 19.726 7.4323 16.4795 8.5841 13.7333 10.1245 11.4875 11.6649 9.24166 13.6316 7.54289 16.0245 6.39121 18.4174 5.23952 21.3058 4.71519 24.6896 4.81819Z" fill="#F4B183" fill-rule="evenodd"/></g></g><path d="M343.013 613.26C341.477 613.214 340.197 613.546 339.172 614.257 338.148 614.969 337.32 616.057 336.689 617.523 336.058 618.989 335.592 620.824 335.29 623.03 334.989 625.235 334.793 627.809 334.703 630.75 334.594 634.342 334.647 637.32 334.861 639.685 335.076 642.049 335.468 643.937 336.037 645.348 336.607 646.759 337.364 647.759 338.31 648.348 339.256 648.937 340.406 649.252 341.76 649.294 342.775 649.324 343.678 649.189 344.469 648.887 345.259 648.586 345.958 648.119 346.563 647.486 347.169 646.853 347.682 646.048 348.102 645.07 348.523 644.093 348.876 642.958 349.163 641.664 349.45 640.37 349.664 638.904 349.805 637.267 349.946 635.63 350.047 633.822 350.107 631.844 350.18 629.449 350.179 627.333 350.105 625.493 350.031 623.654 349.877 622.054 349.645 620.692 349.413 619.33 349.11 618.175 348.735 617.225 348.36 616.276 347.895 615.513 347.339 614.936 346.783 614.359 346.145 613.942 345.423 613.685 344.701 613.429 343.898 613.287 343.013 613.26ZM343.69 605.152C347.152 605.258 350.003 605.937 352.245 607.191 354.486 608.444 356.237 610.204 357.497 612.47 358.757 614.736 359.598 617.484 360.021 620.715 360.443 623.945 360.593 627.591 360.469 631.651 360.346 635.686 359.91 639.32 359.16 642.554 358.411 645.788 357.265 648.528 355.725 650.774 354.185 653.02 352.218 654.718 349.825 655.87 347.432 657.022 344.531 657.546 341.121 657.442 337.659 657.337 334.814 656.657 332.585 655.404 330.357 654.151 328.613 652.391 327.353 650.125 326.093 647.859 325.245 645.111 324.81 641.88 324.374 638.649 324.218 635.003 324.341 630.943 324.463 626.934 324.906 623.306 325.669 620.06 326.432 616.813 327.584 614.067 329.125 611.821 330.665 609.576 332.632 607.877 335.024 606.725 337.417 605.573 340.306 605.049 343.69 605.152Z" fill="#F4B183" fill-rule="evenodd"/><text fill="#000000" fill-opacity="0" font-family="Arial,Arial_MSFontService,sans-serif" font-size="52.3154" x="324.3" y="650.915">0</text><g clip-path="url(#clip57)" filter="url(#fx18)" transform="translate(360 603)"><g clip-path="url(#clip58)"><path d="M20.5045 4.81393C23.1335 4.73295 25.4408 4.99407 27.4264 5.59729 29.4121 6.2005 31.0739 7.07423 32.4118 8.21848 33.7498 9.36273 34.7627 10.7384 35.4505 12.3456 36.1383 13.9528 36.5111 15.6935 36.5688 17.5676 36.6193 19.2074 36.5129 20.8261 36.2494 22.4235 35.986 24.0209 35.388 25.7524 34.4554 27.6179 33.5228 29.4834 32.1927 31.5566 30.4653 33.8374 28.7378 36.1183 26.4357 38.775 23.5589 41.8077L17.8497 48.0412 37.7621 47.4278C38.0224 47.4198 38.2656 47.4905 38.4917 47.6398 38.7177 47.7892 38.9138 48.0242 39.08 48.3447 39.2462 48.6653 39.3766 49.0911 39.4711 49.6223 39.5657 50.1535 39.6241 50.7835 39.6466 51.5124 39.6698 52.2672 39.6572 52.9124 39.6085 53.448 39.5599 53.9837 39.4757 54.4226 39.356 54.765 39.2363 55.1074 39.0745 55.3534 38.8707 55.503 38.6668 55.6526 38.4348 55.7314 38.1745 55.7394L9.12575 56.6341C8.5531 56.6518 8.05694 56.6149 7.63726 56.5236 7.21758 56.4324 6.87299 56.2411 6.60348 55.9497 6.33396 55.6584 6.13182 55.2282 5.99706 54.6592 5.86228 54.0902 5.78087 53.3501 5.75281 52.4391 5.72635 51.5801 5.74274 50.8436 5.80199 50.2295 5.86124 49.6154 5.98756 49.0644 6.18096 48.5764 6.37437 48.0885 6.62673 47.6117 6.93807 47.1462 7.2494 46.6807 7.65695 46.1666 8.1607 45.6039L16.6179 35.964C18.3058 34.0882 19.6602 32.3855 20.6813 30.856 21.7024 29.3264 22.4933 27.9342 23.0539 26.6794 23.6145 25.4246 23.9893 24.2732 24.1785 23.2252 24.3677 22.1772 24.4479 21.1847 24.419 20.2476 24.3925 19.3886 24.2309 18.5794 23.9339 17.82 23.6369 17.0605 23.2128 16.4027 22.6616 15.8465 22.1104 15.2903 21.4263 14.8619 20.6093 14.5614 19.7924 14.2609 18.8373 14.1275 17.7441 14.1612 16.2084 14.2085 14.8543 14.4456 13.682 14.8725 12.5097 15.2994 11.482 15.7675 10.5988 16.2767 9.71562 16.7859 8.9809 17.2514 8.39466 17.6733 7.80841 18.0952 7.3461 18.3114 7.00771 18.3218 6.77345 18.329 6.56932 18.2571 6.39532 18.1062 6.22131 17.9552 6.07664 17.6991 5.9613 17.3379 5.84596 16.9767 5.74633 16.4913 5.66242 15.8816 5.57851 15.2719 5.52292 14.5246 5.49566 13.6396 5.47722 13.0409 5.48131 12.5392 5.50793 12.1346 5.53454 11.7299 5.58228 11.3767 5.65115 11.075 5.72002 10.7732 5.81612 10.5097 5.93945 10.2845 6.06278 10.0592 6.28232 9.78539 6.59807 9.46302 6.91381 9.14065 7.50026 8.72526 8.35741 8.21686 9.21456 7.70845 10.2738 7.20685 11.5352 6.71206 12.7967 6.21726 14.1904 5.79003 15.7165 5.43038 17.2426 5.07072 18.8386 4.86524 20.5045 4.81393Z" fill="#F4B183" fill-rule="evenodd"/></g></g><path d="M380.505 605.148C383.133 605.067 385.441 605.328 387.426 605.931 389.412 606.534 391.074 607.408 392.412 608.552 393.75 609.697 394.763 611.072 395.451 612.68 396.138 614.287 396.511 616.027 396.569 617.901 396.619 619.541 396.513 621.16 396.249 622.757 395.986 624.355 395.388 626.086 394.455 627.952 393.523 629.817 392.193 631.891 390.465 634.171 388.738 636.452 386.436 639.109 383.559 642.142L377.85 648.375 397.762 647.762C398.022 647.754 398.266 647.824 398.492 647.974 398.718 648.123 398.914 648.358 399.08 648.679 399.246 648.999 399.377 649.425 399.471 649.956 399.566 650.487 399.624 651.117 399.647 651.846 399.67 652.601 399.657 653.246 399.609 653.782 399.56 654.318 399.476 654.757 399.356 655.099 399.236 655.441 399.074 655.687 398.871 655.837 398.667 655.986 398.435 656.065 398.174 656.073L369.126 656.968C368.553 656.986 368.057 656.949 367.637 656.858 367.218 656.766 366.873 656.575 366.603 656.284 366.334 655.992 366.132 655.562 365.997 654.993 365.862 654.424 365.781 653.684 365.753 652.773 365.726 651.914 365.743 651.178 365.802 650.563 365.861 649.949 365.988 649.398 366.181 648.91 366.374 648.422 366.627 647.946 366.938 647.48 367.249 647.015 367.657 646.5 368.161 645.938L376.618 636.298C378.306 634.422 379.66 632.719 380.681 631.19 381.702 629.66 382.493 628.268 383.054 627.013 383.614 625.758 383.989 624.607 384.179 623.559 384.368 622.511 384.448 621.519 384.419 620.582 384.393 619.723 384.231 618.913 383.934 618.154 383.637 617.394 383.213 616.737 382.662 616.18 382.11 615.624 381.426 615.196 380.609 614.895 379.792 614.595 378.837 614.461 377.744 614.495 376.208 614.542 374.854 614.779 373.682 615.206 372.51 615.633 371.482 616.101 370.599 616.611 369.716 617.12 368.981 617.585 368.395 618.007 367.808 618.429 367.346 618.645 367.008 618.656 366.773 618.663 366.569 618.591 366.395 618.44 366.221 618.289 366.077 618.033 365.961 617.672 365.846 617.311 365.746 616.825 365.662 616.216 365.578 615.606 365.523 614.858 365.496 613.974 365.477 613.375 365.481 612.873 365.508 612.469 365.535 612.064 365.582 611.711 365.651 611.409 365.72 611.107 365.816 610.844 365.939 610.618 366.063 610.393 366.282 610.119 366.598 609.797 366.914 609.475 367.5 609.059 368.357 608.551 369.215 608.042 370.274 607.541 371.535 607.046 372.797 606.551 374.19 606.124 375.717 605.764 377.243 605.405 378.839 605.199 380.505 605.148Z" fill="#F4B183" fill-rule="evenodd"/><text fill="#000000" fill-opacity="0" font-family="Arial,Arial_MSFontService,sans-serif" font-size="51.8388" x="365.484" y="650.492">2</text><g clip-path="url(#clip59)" filter="url(#fx19)" transform="translate(399 600)"><g clip-path="url(#clip60)"><path d="M18.9404 5.35974C21.5549 5.07273 23.8756 5.152 25.9025 5.59756 27.9293 6.04311 29.6546 6.78375 31.0782 7.8195 32.5018 8.85524 33.6195 10.1472 34.4313 11.6955 35.2431 13.2438 35.7513 14.9498 35.9559 16.8136 36.1349 18.4444 36.1558 20.0664 36.0185 21.6796 35.8812 23.2927 35.4209 25.0658 34.6375 26.9987 33.8542 28.9317 32.6909 31.1029 31.1478 33.5122 29.6046 35.9215 27.518 38.7507 24.8881 41.9998L19.6856 48.662 39.4885 46.4881C39.7473 46.4597 39.9953 46.5111 40.2324 46.6423 40.4695 46.7734 40.6834 46.9923 40.8743 47.2988 41.0651 47.6053 41.2285 48.0197 41.3644 48.5418 41.5003 49.0639 41.608 49.6874 41.6876 50.4122 41.77 51.1629 41.808 51.8072 41.8015 52.3449 41.7951 52.8827 41.7456 53.327 41.6531 53.6777 41.5606 54.0284 41.4186 54.2863 41.2272 54.4514 41.0357 54.6165 40.8106 54.7133 40.5517 54.7417L11.6627 57.913C11.0932 57.9755 10.5957 57.9777 10.1702 57.9196 9.74463 57.8616 9.38609 57.6979 9.09456 57.4286 8.80301 57.1593 8.56773 56.7463 8.38873 56.1896 8.20973 55.6329 8.0705 54.9016 7.97104 53.9956 7.87727 53.1413 7.83582 52.4058 7.84671 51.7889 7.85757 51.1721 7.94028 50.6128 8.0948 50.1112 8.24931 49.6096 8.4635 49.1145 8.73735 48.626 9.0112 48.1374 9.37715 47.593 9.83521 46.9925L17.51 36.7187C19.0454 34.7163 20.2621 32.9126 21.16 31.3076 22.058 29.7027 22.7372 28.2527 23.1976 26.9578 23.658 25.6628 23.9414 24.4855 24.0477 23.4259 24.1541 22.3663 24.1561 21.3706 24.0538 20.4387 23.9601 19.5844 23.7354 18.7904 23.3797 18.0566 23.0241 17.3228 22.5497 16.7003 21.9565 16.189 21.3633 15.6778 20.6477 15.3044 19.8097 15.0689 18.9717 14.8335 18.0091 14.7754 16.9219 14.8947 15.3946 15.0624 14.0634 15.405 12.9282 15.9226 11.793 16.4402 10.8051 16.9874 9.96465 17.5644 9.12415 18.1413 8.42822 18.6631 7.87689 19.1297 7.32556 19.5963 6.88162 19.848 6.5451 19.885 6.31213 19.9105 6.10298 19.8549 5.91768 19.7181 5.73238 19.5812 5.56805 19.3373 5.42473 18.9862 5.2814 18.6352 5.14398 18.1591 5.0125 17.5578 4.881 16.9566 4.76694 16.2159 4.67032 15.3358 4.60497 14.7404 4.56969 14.24 4.56447 13.8345 4.55925 13.429 4.57913 13.0731 4.62411 12.7669 4.6691 12.4607 4.74422 12.1905 4.8495 11.9562 4.95477 11.722 5.15215 11.4318 5.44162 11.0856 5.73111 10.7395 6.28316 10.2794 7.09776 9.70528 7.91238 9.13119 8.92903 8.54802 10.1477 7.95578 11.3664 7.36353 12.7224 6.82826 14.2155 6.34997 15.7087 5.87168 17.2837 5.5416 18.9404 5.35974Z" fill="#F4B183" fill-rule="evenodd"/></g></g><path d="M417.94 602.694C420.555 602.407 422.876 602.486 424.902 602.931 426.929 603.377 428.655 604.118 430.078 605.153 431.502 606.189 432.619 607.481 433.431 609.029 434.243 610.578 434.751 612.284 434.956 614.148 435.135 615.778 435.156 617.4 435.018 619.013 434.881 620.627 434.421 622.4 433.638 624.333 432.854 626.266 431.691 628.437 430.148 630.846 428.605 633.255 426.518 636.085 423.888 639.334L418.686 645.996 438.488 643.822C438.747 643.794 438.995 643.845 439.232 643.976 439.469 644.107 439.683 644.326 439.874 644.633 440.065 644.939 440.228 645.354 440.364 645.876 440.5 646.398 440.608 647.021 440.688 647.746 440.77 648.497 440.808 649.141 440.802 649.679 440.795 650.217 440.746 650.661 440.653 651.012 440.561 651.362 440.419 651.62 440.227 651.785 440.036 651.95 439.811 652.047 439.552 652.076L410.663 655.247C410.093 655.309 409.596 655.312 409.17 655.254 408.745 655.195 408.386 655.032 408.095 654.763 407.803 654.493 407.568 654.08 407.389 653.524 407.21 652.967 407.07 652.235 406.971 651.329 406.877 650.475 406.836 649.74 406.847 649.123 406.858 648.506 406.94 647.947 407.095 647.445 407.249 646.943 407.464 646.448 407.737 645.96 408.011 645.471 408.377 644.927 408.835 644.326L416.51 634.053C418.045 632.05 419.262 630.247 420.16 628.642 421.058 627.037 421.737 625.587 422.198 624.292 422.658 622.997 422.941 621.819 423.048 620.76 423.154 619.7 423.156 618.705 423.054 617.773 422.96 616.918 422.735 616.124 422.38 615.391 422.024 614.657 421.55 614.034 420.956 613.523 420.363 613.012 419.648 612.638 418.81 612.403 417.972 612.167 417.009 612.109 415.922 612.229 414.395 612.396 413.063 612.739 411.928 613.257 410.793 613.774 409.805 614.321 408.965 614.898 408.124 615.475 407.428 615.997 406.877 616.464 406.326 616.93 405.882 617.182 405.545 617.219 405.312 617.244 405.103 617.189 404.918 617.052 404.732 616.915 404.568 616.671 404.425 616.32 404.281 615.969 404.144 615.493 404.013 614.892 403.881 614.291 403.767 613.55 403.67 612.67 403.605 612.074 403.57 611.574 403.564 611.168 403.559 610.763 403.579 610.407 403.624 610.101 403.669 609.795 403.744 609.524 403.849 609.29 403.955 609.056 404.152 608.766 404.442 608.42 404.731 608.073 405.283 607.613 406.098 607.039 406.912 606.465 407.929 605.882 409.148 605.29 410.366 604.697 411.722 604.162 413.216 603.684 414.709 603.206 416.284 602.876 417.94 602.694Z" fill="#F4B183" fill-rule="evenodd"/><text fill="#000000" fill-opacity="0" font-family="Arial,Arial_MSFontService,sans-serif" font-size="52.7705" x="403.564" y="648.699">2</text></g></svg>